PathFileType	4	(X/Y/Z)	Run_300 02
DataRate	CameraRate	NumFrames	NumMarkers	Units	OrigDataRate	OrigDataStartFrame	OrigNumFrames
100	100	4	42	mm	100	32	128
Frame#	Time	RASI			LPSI			RPSI			RTH1			RTH2			RTH3			LTH1			LTH2			LTH3			RTB1			RTB2			RTB3			LTB1			LTB2			LTB3			RCAL			RTOE			RMT5			LCAL			LTOE			LMT5			LACR			RACR			CLAV			C7			RUA1			RUA2			RUA3			RLEL			RMEL			LUA1			LUA2			LUA3			LLEL			LMEL			RFAsuperior			RFAradius			RFAulna			LFAsuperior			LFAradius			LFAulna			LASI			
		X1	Y1	Z1	X2	Y2	Z2	X3	Y3	Z3	X4	Y4	Z4	X5	Y5	Z5	X6	Y6	Z6	X7	Y7	Z7	X8	Y8	Z8	X9	Y9	Z9	X10	Y10	Z10	X11	Y11	Z11	X12	Y12	Z12	X13	Y13	Z13	X14	Y14	Z14	X15	Y15	Z15	X16	Y16	Z16	X17	Y17	Z17	X18	Y18	Z18	X19	Y19	Z19	X20	Y20	Z20	X21	Y21	Z21	X22	Y22	Z22	X23	Y23	Z23	X24	Y24	Z24	X25	Y25	Z25	X26	Y26	Z26	X27	Y27	Z27	X28	Y28	Z28	X29	Y29	Z29	X30	Y30	Z30	X31	Y31	Z31	X32	Y32	Z32	X33	Y33	Z33	X34	Y34	Z34	X35	Y35	Z35	X36	Y36	Z36	X37	Y37	Z37	X38	Y38	Z38	X39	Y39	Z39	X40	Y40	Z40	X41	Y41	Z41	X42	Y42	Z42	

28	0.79	1012.551096	1068.572596	-232.897526	840.2336780000001	1145.034194	-405.62174	850.455295	1135.927478	-293.541409	913.085687	954.281729	-185.156881	808.436604	836.791129	-204.969608	784.912993	685.2336299999999	-227.18071	959.453917	967.115491	-542.5005190000001	953.190885	803.032357	-489.155732	1063.273666	708.404404	-484.584755	702.22845	437.024516	-303.678947	610.394668	438.961997	-237.205263	575.607087	294.978224	-320.589232	1160.551651	499.636246	-427.70823	1061.459267	399.94367	-473.396363	1110.167803	287.812085	-415.268239	417.827919	280.475428	-314.381653	541.376708	81.392959	-369.914124	498.236013	90.49463799999999	-270.806408	975.00522	160.581228	-379.389284	1211.611397	138.688061	-386.699898	1156.726279	89.284201	-469.455415	941.621552	1580.691697	-496.138365	1022.117556	1547.804116	-191.035335	1049.33182	1521.7426	-329.592889	920.0123620000001	1585.107604	-332.345968	945.153939	1443.891731	-102.875645	999.272113	1386.087277	-96.01836299999999	956.4582799999999	1303.890626	-40.138181	943.08397	1236.731618	-14.748472	915.7432679999999	1215.386671	-99.862712	814.487181	1523.214525	-522.011121	813.1648709999999	1445.798423	-561.427486	720.777187	1409.680813	-562.17681	680.026447	1352.348071	-576.723288	683.714211	1328.361998	-490.254382	1038.63671	1232.748234	-65.345811	1130.704059	1281.469226	-211.013246	1159.355866	1230.248814	-173.443449	729.981482	1285.563301	-589.603915	909.501095	1237.640753	-546.650816	876.476686	1181.287131	-577.350479	993.837662	1084.756879	-486.899995	
29	0.8	1015.219467	1069.908652	-234.143676	842.245694	1146.605456	-405.46372	852.741193	1138.149069	-293.196699	915.847453	957.183609	-184.420354	809.780566	841.055341	-205.448982	784.691995	689.549276	-227.004844	959.9724660000001	967.89514	-542.880094	950.83631	803.479565	-488.776924	1058.637289	706.641404	-484.384142	697.151067	442.072876	-302.537129	605.894543	446.807572	-235.516026	566.476909	303.695631	-318.365045	1162.85687	500.241133	-425.946658	1072.675229	392.876573	-472.068249	1128.989446	285.316015	-412.034276	411.353711	296.850509	-309.78916	520.527913	88.75084699999999	-367.942195	478.651233	99.839983	-269.433294	1004.248336	147.821112	-377.946621	1241.619236	145.120715	-377.685209	1193.764595	87.812434	-459.508638	942.172916	1583.530706	-496.620623	1023.785633	1550.652824	-192.580308	1050.290623	1524.114751	-330.904543	921.179647	1587.388545	-332.972158	947.827818	1447.25827	-103.597762	1002.139611	1389.602678	-96.73106900000001	959.552034	1307.888479	-39.769383	946.4367120000001	1240.807402	-13.948011	917.899345	1219.091357	-98.588466	814.856236	1526.779894	-521.261313	812.953488	1448.97719	-560.389705	720.531941	1412.566287	-559.671065	679.747888	1354.87128	-573.213021	685.059723	1330.795577	-486.876417	1041.009323	1237.625731	-66.26372000000001	1129.470371	1287.13045	-213.388607	1159.982994	1236.065981	-176.630243	729.911605	1288.643845	-587.111367	910.722901	1242.583616	-547.13645	877.7857	1185.953781	-577.618147	995.668795	1085.780726	-489.006928	
30	0.8100000000000001	1017.483805	1070.248478	-235.476582	843.794863	1147.273331	-405.3011	854.659031	1139.473572	-292.86203	918.635172	959.007006	-183.875705	812.162874	843.196165	-205.837775	787.078107	691.419687	-226.963033	960.567102	967.670438	-542.7294450000001	949.299864	803.239796	-488.067358	1054.118158	703.940733	-484.324945	693.928971	445.235195	-301.996179	604.338083	452.988068	-233.530071	557.615831	312.157707	-316.171394	1163.853018	499.74155	-424.566717	1081.857398	386.271234	-470.654	1145.087032	283.239267	-409.307409	404.368349	312.770582	-304.753141	500.33751	98.057464	-365.686593	460.136705	110.607428	-267.683133	1030.682757	137.004109	-376.628296	1266.978357	152.905617	-369.254412	1226.730259	88.410904	-449.454934	942.841463	1585.090184	-497.340429	1025.092509	1552.468082	-194.087836	1051.241432	1525.537863	-332.136875	922.312102	1588.711166	-333.93315	949.957882	1449.396354	-104.480684	1004.317848	1392.039096	-97.40599400000001	961.775811	1310.935622	-39.439963	948.8311639999999	1244.015235	-13.083456	919.106373	1221.871235	-97.173224	815.394396	1528.781407	-521.051394	813.2531320000001	1450.528942	-559.693305	720.857244	1413.781258	-557.649919	680.108951	1355.727964	-570.241707	686.909277	1331.648282	-484.012391	1042.665314	1240.399833	-66.886292	1128.272694	1289.595707	-215.482098	1159.774602	1238.510346	-178.801046	730.575091	1290.097316	-585.07519	912.5949440000001	1245.925363	-547.801276	879.724032	1189.071075	-578.031328	996.606585	1086.799764	-488.785514	
31	0.82	1019.341293	1069.821377	-236.783854	844.9301809999999	1147.060311	-405.118351	856.209444	1139.851132	-292.558122	921.489237	959.684021	-183.579851	815.816609	843.027528	-205.904888	792.19556	690.631381	-226.861182	961.30205	966.866417	-542.13012	948.4024920000001	802.503833	-487.155849	1049.842665	700.495039	-484.267019	692.30252	446.833525	-301.792125	605.106737	457.915347	-231.344611	549.002491	320.588622	-313.551897	1163.827523	498.24681	-423.514462	1088.700676	380.19934	-468.991221	1158.114408	281.361068	-407.123764	396.859083	328.437084	-299.4241	481.442253	109.543143	-363.591802	443.203687	122.97981	-265.40713	1053.330366	128.117708	-375.243961	1287.219076	160.924793	-361.89648	1254.236564	90.287288	-440.174675	943.671033	1585.298357	-498.358879	1026.156386	1553.251884	-195.538176	1052.217141	1526.028707	-333.269337	923.436198	1589.092913	-335.226141	951.215358	1450.492362	-105.591901	1005.560337	1393.542852	-97.95402900000001	962.974346	1313.058449	-39.206522	950.035212	1246.307852	-12.354649	919.244149	1223.779796	-95.890618	816.139648	1529.146447	-521.413771	814.001753	1450.417392	-559.331128	721.699741	1413.332753	-556.20812	681.092178	1354.881128	-567.968824	689.1607	1330.837679	-481.797574	1043.409163	1241.119004	-67.243049	1127.290264	1288.859175	-217.389688	1158.864452	1237.514936	-180.148718	731.971594	1289.91875	-583.570577	915.014484	1247.600777	-548.4841709999999	882.299656	1190.60187	-578.598842	997.376547	1087.036254	-487.557648	
